<svg version="1.1" id="Layer_1" xmlns="http://www.w3.org/2000/svg" xmlns:xlink="http://www.w3.org/1999/xlink" x="0px" y="0px" viewBox="-704.8 299 1164.6 265.9" style="enable-background:new -704.8 299 1164.6 265.9;" xml:space="preserve">
 <style type="text/css">
  .st0{fill:#FAA74A;}
	.st1{fill:#1E3860;}
 </style>
 <g id="Logos">
  <g>
   <g>
    <path class="st0" d="M-338.8,302.7c-4.4-4.4-11.9-4.4-16.3,0l-6.7,6.7c-4.4,4.4-4.4,11.9,0,16.3l106.4,106.4l-106.4,106.4
				c-4.4,4.4-4.4,11.9,0,16.3l6.7,6.7c4.4,4.4,11.9,4.4,16.3,0l129.3-129.3L-338.8,302.7z">
    </path>
   </g>
   <g>
    <g>
     <path class="st1" d="M-103.3,309.5l-6.7-6.7c-4.4-4.4-11.9-4.4-16.3,0l-90,90.3l23.1,23.1l90.3-90
					C-98.6,321.1-98.6,314-103.3,309.5z">
     </path>
    </g>
   </g>
   <g>
    <path class="st1" d="M372.3,416.9c0,0-12.2-3-18.9-5.3c-21.2-7.3-40.8-18.7-40.8-39.6c0-24,20.7-40.2,51.6-40.2
				c20.5,0,36.7,5.8,47.8,17.2l3.8,3.8c4.4,4.4,11.9,4.4,16.3,0l6.7-6.7c4.4-4.4,4.4-11.9,0-16.3c-1.8-1.8-3.8-3.8-3.8-3.8
				c-18-17-42.9-26.4-70.9-26.4c-25.7,0-46.3,6.7-63.2,20.7c-16.1,13.7-24.2,31.2-24.2,52.2c0,51,47.5,63.7,89.8,74.9l1.4,0.3
				c36.9,8.7,55.6,23.3,55.6,43.7c0,25.4-21.2,40.6-56.9,40.6c-22.4,0-42-7.5-55.3-20.7l-4-4c-4.4-4.4-11.9-4.4-16.3,0l-8.2,8.2
				c-4.4,4.4-4.4,11.9,0,16.3l4,4l0,0c19.2,18.9,46.9,29.2,79.8,29.2c27.3,0,49.2-6.7,67.2-20.5c17-13.3,25.9-31.1,25.9-53.2
				C459.8,444,418.2,427.4,372.3,416.9z">
    </path>
   </g>
   <g>
    <g>
     <path class="st1" d="M-103.3,554.7l-6.7,6.7c-4.4,4.4-11.9,4.4-16.3,0l-90-90.3l23.1-23.1l90.3,90
					C-98.6,542.8-98.6,550.1-103.3,554.7z">
     </path>
    </g>
   </g>
   <g>
    <path class="st1" d="M73.7,331.9c55.3,0,100.1,45.1,100.1,100.1S128.8,532.2,73.7,532.2c-55.3,0-100.1-45.1-100.1-100.1
				S18.6,331.9,73.7,331.9 M73.7,299.2C0.5,299.2-59.1,358.7-59.1,432S0.4,564.8,73.7,564.8c73.2,0,132.8-59.5,132.8-132.8
				S146.9,299.2,73.7,299.2L73.7,299.2z">
    </path>
   </g>
   <g>
    <path class="st1" d="M-450.9,299.2h-9.6c-6.3,0-11.4,5.2-11.4,11.4v34.1c-24.2-28-60.2-45.7-100.1-45.7
				c-73.2,0-132.8,59.5-132.8,132.8s59.5,132.8,132.8,132.8c39.9,0,75.8-17.7,100.1-45.7v34.1c0,6.3,5.2,11.4,11.4,11.4h9.6
				c6.3,0,11.4-5.2,11.4-11.4v-242C-439.5,304.4-444.5,299.2-450.9,299.2z M-472.1,432.7c-0.3,55.1-45.1,99.6-100.1,99.6
				c-55.3,0-100.1-45.1-100.1-100.1c0-55.3,45.1-100.1,100.1-100.1s99.9,44.6,100.1,99.6V432.7z">
    </path>
   </g>
  </g>
 </g>
</svg>