<svg width="63" height="19" viewBox="0 0 63 19" fill="none" xmlns="http://www.w3.org/2000/svg">
<path d="M54.3479 17.8814V2.88321H48.8235V0.314857H62.9494V2.88321H57.425V17.8814H54.3479Z" fill="#18181B"/>
<path d="M22.7781 15.9674C24.8134 15.9674 26.3399 14.8528 26.3399 12.9387C26.3399 10.6853 24.5711 9.90994 21.9543 9.90994H21.1062V7.5112H21.8331C24.5469 7.5112 25.9037 6.61471 25.9037 4.79748C25.9037 3.02871 24.4742 2.2049 22.8508 2.2049C20.7186 2.2049 19.5313 3.48908 19.2648 5.5486H16.4541C16.7207 2.2049 19.1436 0 23.0204 0C25.9522 0 28.8597 1.33263 28.8597 4.62787C28.8597 6.37241 27.8421 7.82619 26.2914 8.57731C28.4236 9.35266 29.3201 11.0487 29.3201 12.866C29.3201 16.452 26.2429 18.1965 22.7296 18.1965C18.659 18.1965 16.4299 15.5312 16.2361 12.4298H19.0467C19.3132 14.3682 20.5247 15.9674 22.7781 15.9674Z" fill="#18181B"/>
<path d="M14.5378 17.8814H10.4188L2.98025 3.85239V17.8814H0V0.314857H4.11905L11.5576 14.3439V0.314857H14.5378V17.8814Z" fill="#18181B"/>
<path d="M47.5256 0.29985H44.9011C44.6999 3.40953 42.086 5.87187 38.889 5.87187C35.6921 5.87187 33.0782 3.40953 32.877 0.29985H30.2525L30.2527 0.304386C30.4593 4.84759 34.2478 8.4664 38.889 8.4664C43.5303 8.4664 47.3188 4.84759 47.5254 0.304386L47.5256 0.29985Z" fill="url(#paint0_linear_88_29983)"/>
<path d="M38.8889 9.70578C34.2477 9.70578 30.4592 13.3246 30.2526 17.8678L30.2524 17.8723H32.8769C33.0781 14.7626 35.692 12.3003 38.8889 12.3003C42.0859 12.3003 44.6998 14.7626 44.901 17.8723H47.5254L47.5252 17.8678C47.3186 13.3246 43.5302 9.70578 38.8889 9.70578Z" fill="url(#paint1_linear_88_29983)"/>
<defs>
<linearGradient id="paint0_linear_88_29983" x1="47.5256" y1="0.200008" x2="38.8392" y2="9.08609" gradientUnits="userSpaceOnUse">
<stop stop-color="#FF7700" stop-opacity="0"/>
<stop offset="1" stop-color="#FF7700"/>
</linearGradient>
<linearGradient id="paint1_linear_88_29983" x1="47.5256" y1="0.200008" x2="38.8392" y2="9.08609" gradientUnits="userSpaceOnUse">
<stop stop-color="#FF7700" stop-opacity="0"/>
<stop offset="1" stop-color="#FF7700"/>
</linearGradient>
</defs>
</svg>
